<?xml version="1.0" standalone="no"?>
<!DOCTYPE svg PUBLIC "-//W3C//DTD SVG 20010904//EN"
 "http://www.w3.org/TR/2001/REC-SVG-20010904/DTD/svg10.dtd">
<svg version="1.0" xmlns="http://www.w3.org/2000/svg"
 width="900.000000pt" height="500.000000pt" viewBox="0 0 900.000000 500.000000"
 preserveAspectRatio="xMidYMid meet">

<g transform="translate(0.000000,500.000000) scale(0.100000,-0.100000)"
fill="#000000" stroke="none">
<path d="M4190 4870 c-581 -89 -1088 -427 -1402 -932 -112 -181 -210 -428
-253 -644 -45 -219 -51 -514 -15 -716 l12 -68 350 0 c314 0 350 2 344 16 -3 8
-16 61 -27 117 -17 79 -22 136 -22 252 0 163 19 280 69 431 105 314 356 598
659 748 427 212 933 179 1320 -84 460 -314 681 -883 546 -1407 l-19 -73 348 0
c323 0 349 1 354 18 3 9 10 52 15 95 72 530 -67 1054 -392 1485 -309 410 -793
694 -1310 767 -143 20 -431 18 -577 -5z m224 -205 c4 -14 4 -30 2 -34 -3 -5
-33 -11 -67 -14 -69 -6 -72 -8 -63 -31 5 -14 17 -17 56 -14 44 3 49 1 55 -20
7 -30 4 -32 -53 -40 -26 -4 -47 -10 -46 -14 1 -5 2 -15 2 -24 0 -13 10 -14 70
-8 l70 7 0 -31 c0 -29 -2 -30 -50 -36 -163 -19 -149 -20 -154 6 -7 34 -27 250
-24 253 2 2 41 8 88 13 47 5 90 10 96 11 7 0 15 -10 18 -24z m236 10 c31 -16
55 -49 46 -64 -12 -19 -56 -18 -73 1 -18 20 -54 21 -60 1 -2 -6 23 -25 55 -43
86 -46 103 -91 53 -141 -23 -23 -38 -29 -71 -29 -52 0 -96 22 -115 59 -13 26
-13 30 1 35 28 11 51 6 69 -14 21 -23 60 -26 68 -6 7 18 -3 26 -69 59 -73 37
-85 78 -35 128 34 33 83 39 131 14z m346 -58 c1 -1 0 -15 -3 -30 -5 -27 -7
-28 -48 -21 l-43 6 -23 -101 c-20 -89 -25 -101 -43 -101 -43 0 -46 10 -26 100
26 115 26 118 -12 128 -32 8 -45 29 -35 57 5 11 27 9 118 -11 62 -14 114 -26
115 -27z m-893 -17 c33 -26 43 -70 23 -107 -14 -27 -14 -29 26 -70 l41 -42
-34 -9 c-31 -9 -37 -6 -74 29 -58 55 -80 35 -49 -44 3 -10 -5 -18 -26 -25 -36
-13 -35 -16 -76 135 -14 54 -28 103 -31 109 -6 15 76 42 133 43 27 1 50 -6 67
-19z m1051 -40 l26 -10 0 -150 0 -150 -32 13 c-24 10 -33 20 -33 37 0 18 -10
28 -48 43 -45 18 -49 19 -66 3 -16 -15 -23 -15 -51 -4 l-33 14 99 106 c54 58
102 106 106 107 4 1 18 -3 32 -9z m-1406 -182 l71 -117 -22 -16 c-29 -20 -35
-19 -109 14 -114 51 -114 51 -73 -13 50 -79 51 -82 18 -100 l-29 -15 -67 114
c-37 63 -67 118 -67 123 0 5 13 15 28 21 25 11 38 8 107 -23 42 -20 81 -36 86
-36 5 0 -10 30 -32 67 -23 37 -37 69 -32 70 6 2 19 10 29 18 10 7 20 13 20 12
1 -1 34 -55 72 -119z m1615 88 c9 -7 17 -16 17 -20 0 -3 -21 -42 -46 -86 -26
-44 -44 -86 -41 -94 3 -8 17 -22 31 -32 24 -15 28 -15 49 -1 13 8 43 47 66 86
23 39 45 71 49 71 4 0 17 -8 30 -18 l22 -17 -50 -81 c-56 -92 -83 -114 -137
-114 -69 0 -122 52 -123 119 0 37 86 201 105 201 6 -1 18 -7 28 -14z m-1966
-193 c13 -19 10 -24 -37 -64 -48 -40 -49 -43 -33 -61 16 -18 18 -17 55 19 l39
38 19 -25 18 -24 -39 -34 c-38 -33 -39 -35 -23 -53 16 -18 18 -17 67 26 48 42
52 44 69 28 10 -9 17 -22 16 -28 -2 -7 -34 -40 -73 -74 l-70 -62 -40 44 c-22
24 -64 71 -93 104 l-52 61 72 66 c40 36 77 64 82 63 5 -2 16 -13 23 -24z
m2287 -37 c49 -48 56 -59 56 -94 0 -48 -36 -89 -83 -94 -30 -3 -32 -6 -40 -55
-5 -29 -12 -53 -16 -53 -4 0 -17 11 -30 24 -20 21 -21 27 -11 71 8 36 8 51 -2
62 -10 12 -16 9 -42 -22 l-31 -37 -24 26 -24 25 89 100 c49 55 92 100 95 101
4 0 32 -24 63 -54z m-2495 -183 c2 -1 -15 -26 -38 -54 -38 -48 -40 -54 -26
-68 15 -15 19 -13 47 22 33 40 49 45 68 22 11 -13 8 -22 -20 -56 -31 -38 -31
-41 -14 -54 17 -13 23 -10 56 28 21 23 38 45 38 50 0 13 27 7 43 -11 15 -16
12 -22 -34 -82 -28 -36 -56 -71 -64 -79 -11 -11 -30 0 -119 70 -58 46 -103 89
-101 96 2 6 30 43 61 82 56 69 58 70 78 53 12 -9 23 -18 25 -19z m2736 -69
c16 -25 16 -27 -54 -147 -38 -67 -74 -123 -80 -125 -5 -2 -17 8 -26 22 -13 19
-14 29 -5 45 9 18 6 28 -22 62 -24 30 -37 39 -54 35 -14 -4 -28 2 -44 19 -13
14 -21 27 -18 30 5 5 262 82 279 84 4 1 14 -11 24 -25z m-2864 -203 c16 -16
29 -37 29 -45 0 -13 12 -16 55 -16 30 0 55 -2 55 -5 0 -4 -7 -19 -15 -35 -14
-28 -20 -30 -69 -30 -68 0 -76 -17 -24 -48 38 -23 38 -23 22 -53 l-15 -30 -57
32 c-31 18 -85 48 -119 66 -35 19 -63 39 -63 44 0 19 63 120 83 134 36 25 85
19 118 -14z m3007 -6 c10 -22 7 -36 -29 -106 -22 -45 -38 -83 -36 -86 3 -2 33
10 67 27 34 17 63 30 65 28 6 -7 25 -47 25 -52 0 -5 -234 -126 -244 -126 -2 0
-9 13 -16 29 -10 26 -7 37 29 110 23 44 41 83 41 86 0 3 -31 -11 -70 -30 l-69
-35 -16 30 -15 30 117 59 c65 33 123 60 129 60 6 1 16 -10 22 -24z m-3198
-276 c0 -19 -10 -43 -25 -61 -31 -37 -32 -60 -2 -92 54 -61 147 -16 135 65 -5
34 -25 34 -33 -1 -6 -26 -10 -30 -28 -24 -12 3 -24 8 -26 10 -5 5 31 124 37
124 3 0 36 -10 74 -22 71 -23 84 -40 53 -72 -8 -8 -15 -29 -15 -46 0 -90 -91
-155 -180 -129 -46 14 -99 67 -101 102 -5 78 15 127 64 157 43 26 47 25 47
-11z m3358 -106 c18 -59 29 -110 24 -114 -4 -4 -17 -10 -29 -13 -19 -6 -23 -2
-33 33 -6 23 -14 41 -18 41 -4 0 -50 -14 -102 -30 -51 -17 -95 -30 -96 -30 -4
0 -24 63 -22 66 2 1 39 12 83 24 130 36 125 33 112 75 -9 30 -8 38 4 46 36 22
45 11 77 -98z"/>
<path d="M3992 4552 c-9 -7 -10 -15 -3 -35 6 -15 14 -27 18 -27 24 1 52 14 57
27 13 32 -38 56 -72 35z"/>
<path d="M5087 4443 l-29 -33 26 -11 c33 -15 38 -10 34 38 l-3 38 -28 -32z"/>
<path d="M5607 4176 c-15 -22 -15 -25 2 -40 22 -20 57 -21 64 -2 6 15 -28 66
-43 66 -4 0 -15 -11 -23 -24z"/>
<path d="M5805 3917 c-16 -6 -31 -12 -33 -13 -2 -1 4 -14 14 -28 l17 -27 23
35 c35 50 33 53 -21 33z"/>
<path d="M2956 3712 c-15 -28 -14 -30 11 -41 33 -15 55 2 51 38 -5 39 -42 41
-62 3z"/>
<path d="M4410 3793 c-51 -3 -115 -18 -177 -40 -49 -18 -48 -37 4 -58 44 -19
44 -19 41 3 -2 13 3 16 21 14 32 -3 39 -11 21 -22 -8 -5 -11 -12 -8 -16 11
-10 40 4 33 16 -3 5 -2 10 4 10 5 0 14 -8 20 -17 5 -10 13 -15 17 -11 4 4 1
15 -6 24 -12 13 -11 17 1 25 65 44 123 50 199 20 40 -15 45 -20 43 -46 -1 -16
3 -35 9 -42 8 -10 5 -13 -15 -13 -16 0 -46 17 -79 45 -62 54 -89 63 -119 41
-21 -15 -22 -16 -3 -21 63 -20 82 -34 77 -55 -4 -13 -11 -19 -20 -16 -8 3 -17
6 -19 6 -3 0 -9 11 -14 25 -9 24 -10 25 -29 8 -10 -10 -37 -29 -60 -43 -22
-13 -41 -27 -41 -30 0 -3 13 -14 30 -23 16 -10 36 -25 45 -34 22 -21 35 -7 42
45 l5 40 47 -16 c74 -24 151 -84 151 -116 0 -15 -31 -4 -38 12 -6 16 -12 17
-40 10 -28 -7 -32 -11 -22 -23 7 -8 19 -15 26 -15 23 0 15 -17 -11 -24 -35 -9
-95 -72 -95 -101 0 -15 -13 -34 -37 -54 -36 -29 -36 -31 -25 -68 6 -20 10 -39
7 -41 -8 -8 -25 10 -25 27 0 69 -159 45 -190 -28 -10 -26 -10 -35 7 -63 23
-39 57 -48 73 -19 6 12 20 21 30 21 19 0 19 -2 6 -35 -15 -34 -15 -35 12 -41
47 -10 52 -13 46 -29 -11 -27 5 -65 26 -65 11 0 20 -4 20 -10 0 -21 -24 -8
-96 51 -46 37 -87 63 -107 66 -68 10 -101 54 -132 174 -20 76 -22 79 -33 48
-7 -17 -10 -1 -10 60 -1 81 0 88 43 173 47 91 57 138 29 138 -9 0 -12 5 -8 12
18 28 -59 -38 -119 -102 -288 -311 -219 -804 145 -1036 36 -23 45 -24 218 -24
l179 0 16 29 c25 49 23 92 -5 110 -14 9 -47 38 -73 66 -44 46 -48 53 -43 89 2
22 14 52 26 68 19 26 20 30 5 58 -12 24 -13 30 -2 30 7 0 28 11 46 24 36 27
27 27 187 -16 106 -28 112 -31 118 -59 5 -28 8 -29 58 -29 79 0 84 -7 54 -73
-54 -123 -157 -235 -256 -281 -21 -9 -12 -11 63 -14 l88 -3 64 45 c94 68 170
157 220 261 99 202 98 397 -1 604 -119 245 -377 391 -664 374z m-367 -553 c3
-11 1 -18 -4 -14 -5 3 -9 12 -9 20 0 20 7 17 13 -6z"/>
<path d="M5321 3643 c-46 -58 -67 -193 -70 -456 -2 -124 1 -152 15 -177 16
-27 17 -44 6 -222 -7 -106 -12 -212 -12 -235 l0 -43 56 0 57 0 -7 133 c-4 72
-11 175 -17 228 -9 87 -8 101 11 143 19 44 20 69 20 336 0 159 -3 295 -6 304
-9 24 -30 19 -53 -11z"/>
<path d="M3547 3533 c-4 -32 -10 -121 -13 -198 l-7 -140 37 -43 c33 -40 36
-49 36 -107 0 -35 -6 -123 -14 -197 -8 -73 -18 -179 -22 -235 l-7 -103 57 0
56 0 -5 78 c-20 278 -25 366 -25 441 0 76 2 86 28 120 16 20 32 50 35 66 6 35
-26 362 -38 373 -4 4 -4 -63 0 -148 5 -108 4 -152 -4 -145 -6 6 -13 72 -17
148 -4 76 -11 140 -16 143 -6 4 -7 -51 -3 -139 5 -103 4 -146 -4 -151 -8 -5
-11 22 -12 96 0 57 -4 126 -9 153 -5 37 -8 10 -9 -102 0 -95 -5 -153 -11 -153
-5 0 -10 12 -10 28 0 46 -13 267 -15 270 -1 1 -5 -23 -8 -55z"/>
<path d="M4330 3450 c0 -5 5 -10 10 -10 6 0 10 -7 10 -16 0 -14 3 -14 15 -4
12 10 15 10 15 -4 0 -21 24 -21 41 1 12 15 12 16 -3 11 -9 -4 -23 1 -34 13
-18 20 -54 26 -54 9z"/>
<path d="M2880 1723 c0 -14 85 -118 171 -208 326 -341 753 -551 1229 -606 132
-15 412 -7 540 16 342 61 649 198 910 405 128 101 370 357 370 391 0 5 -195 9
-497 9 l-496 0 -75 -35 c-89 -43 -213 -80 -337 -102 -111 -19 -362 -13 -475
12 -96 21 -210 60 -282 96 l-57 29 -501 0 c-275 0 -500 -3 -500 -7z m628 -131
c34 -31 42 -46 42 -73 0 -43 -21 -74 -59 -87 -23 -8 -37 -6 -69 9 -22 11 -48
29 -57 39 -17 18 -15 22 35 85 28 36 55 65 59 65 4 0 26 -17 49 -38z m2075
-28 c44 -60 54 -94 27 -94 -5 0 -22 18 -36 40 -15 22 -29 40 -31 40 -3 0 -2
-15 1 -34 8 -41 -2 -50 -40 -36 -15 6 -28 9 -30 7 -2 -2 10 -19 26 -39 27 -32
28 -37 14 -49 -18 -14 -26 -7 -94 87 -26 36 -28 43 -15 54 12 10 23 9 55 -4
22 -9 43 -16 46 -16 3 0 3 18 -1 40 -6 38 5 71 24 70 3 -1 28 -30 54 -66z
m-1944 -63 c11 -7 5 -24 -34 -86 -42 -68 -49 -75 -62 -62 -14 13 -10 23 28 86
24 39 46 71 49 71 3 0 11 -4 19 -9z m1730 -36 c70 -36 59 -137 -18 -166 -35
-14 -88 7 -106 41 -19 37 -19 54 1 91 24 47 73 60 123 34z m-1637 -43 c4 -17
12 -47 16 -64 l8 -33 22 43 c23 43 39 53 48 28 5 -12 -60 -156 -70 -156 -23 0
-36 18 -42 58 -11 75 -19 81 -43 34 -14 -28 -26 -40 -36 -36 -21 8 -19 16 20
95 40 78 64 88 77 31z m1440 -43 c20 -11 21 -12 4 -25 -10 -7 -24 -10 -32 -7
-20 8 -54 -25 -54 -53 0 -21 32 -54 52 -54 5 0 17 9 27 19 24 24 61 37 61 21
0 -42 -64 -86 -109 -75 -90 22 -98 146 -11 178 24 9 40 8 62 -4z m-1209 -34
c26 -11 35 -19 30 -31 -4 -11 -12 -14 -27 -9 -52 16 -66 17 -66 3 0 -7 14 -19
30 -25 22 -8 28 -16 24 -28 -4 -10 -12 -14 -23 -9 -26 11 -54 10 -58 -3 -3 -7
13 -17 36 -24 29 -8 41 -18 41 -31 0 -10 -4 -18 -8 -18 -13 0 -106 32 -114 39
-4 4 1 29 11 56 11 28 24 63 30 79 12 31 23 31 94 1z m195 -67 c41 -39 18 -52
-36 -21 -29 17 -31 17 -51 -1 -30 -27 -28 -73 3 -88 26 -11 56 -5 56 12 0 5
-9 10 -20 10 -14 0 -18 5 -13 16 4 12 14 14 42 9 20 -4 37 -8 39 -10 2 -1 -2
-23 -9 -49 -10 -42 -30 -59 -43 -37 -3 4 -16 6 -29 4 -29 -6 -82 36 -91 72 -4
16 0 39 10 60 26 56 94 67 142 23z m780 -30 c7 -35 15 -73 18 -85 10 -38 -27
-33 -80 11 l-49 40 7 -39 c4 -22 8 -44 9 -50 1 -5 -7 -11 -18 -13 -18 -2 -23
6 -34 60 -7 35 -15 73 -17 84 -10 40 24 37 77 -7 50 -42 56 -39 40 18 -10 34
-6 43 19 43 12 0 19 -16 28 -62z m-594 1 c31 -24 33 -48 7 -80 -17 -22 -18
-26 -4 -52 17 -33 15 -38 -13 -31 -11 3 -25 19 -32 36 -13 35 -36 33 -40 -4
-2 -20 -7 -25 -23 -21 -18 5 -19 11 -14 62 12 111 12 111 54 111 24 0 49 -8
65 -21z m379 7 c8 -20 -2 -26 -45 -26 -27 0 -38 -4 -38 -15 0 -11 11 -15 36
-15 28 0 35 -3 32 -17 -2 -11 -14 -19 -31 -21 -15 -2 -27 -9 -27 -18 0 -10 13
-14 46 -14 38 0 45 -3 42 -17 -2 -14 -17 -19 -63 -24 -33 -3 -61 -5 -62 -5 0
1 -5 40 -10 88 l-9 87 26 4 c59 9 98 7 103 -7z m-173 -16 c0 -17 -7 -20 -45
-20 -33 0 -45 -4 -45 -15 0 -10 11 -15 35 -15 28 0 35 -4 35 -20 0 -16 -7 -20
-35 -20 -24 0 -35 -5 -35 -15 0 -11 12 -15 45 -15 38 0 45 -3 45 -20 0 -18 -7
-20 -65 -20 l-65 0 0 90 0 90 65 0 c58 0 65 -2 65 -20z m496 -51 c10 -17 -13
-36 -27 -22 -12 12 -4 33 11 33 5 0 12 -5 16 -11z"/>
<path d="M3435 1544 c-34 -45 -25 -69 26 -69 28 0 35 5 43 28 9 23 6 31 -15
53 l-26 25 -28 -37z"/>
<path d="M5290 1420 c-26 -26 -25 -36 5 -66 24 -24 28 -25 48 -11 27 18 33 59
12 81 -22 21 -41 20 -65 -4z"/>
<path d="M4277 1224 c-17 -18 -6 -35 21 -32 16 2 27 9 27 18 0 16 -36 26 -48
14z"/>
</g>
</svg>
